<svg xmlns="http://www.w3.org/2000/svg" version="1.1" xmlns:xlink="http://www.w3.org/1999/xlink" xmlns:svgjs="http://svgjs.dev/svgjs" width="1445" height="489" preserveAspectRatio="none" viewBox="0 0 1445 489"><g mask="url(&quot;#SvgjsMask1296&quot;)" fill="none"><rect width="1445" height="489" x="0" y="0" fill="rgba(170, 43, 29, 1)"></rect><path d="M 0,33 C 41.4,56.4 124.2,152.4 207,150 C 289.8,147.6 331.2,13.8 414,21 C 496.8,28.2 538.2,179.2 621,186 C 703.8,192.8 745.2,56.2 828,55 C 910.8,53.8 952.2,187.4 1035,180 C 1117.8,172.6 1160,19 1242,18 C 1324,17 1404.4,143.6 1445,175L1445 489L0 489z" fill="rgba(170, 43, 29, 1)"></path><path d="M 0,417 C 57.8,392.4 173.4,289 289,294 C 404.6,299 462.4,448.4 578,442 C 693.6,435.6 751.4,268.4 867,262 C 982.6,255.6 1040.4,405.8 1156,410 C 1271.6,414.2 1387.2,308.4 1445,283L1445 489L0 489z" fill="rgba(255, 255, 255, 1)"></path></g><defs><mask id="SvgjsMask1296"><rect width="1445" height="489" fill="#ffffff"></rect></mask></defs></svg>